<svg width="113" height="113" viewBox="0 0 113 113" fill="none" xmlns="http://www.w3.org/2000/svg">
<g clip-path="url(#clip0_90_240)">
<path d="M86.4297 64.0813C85.5805 62.0473 82.194 59.3388 82.194 59.3388C82.194 59.3388 76.267 50.0216 74.2339 49.1759C72.1999 48.3266 66.9794 44.2266 64.6081 43.3809C62.2369 42.5351 58.765 41.6824 58.0012 40.1621C57.6622 39.4841 57.4927 38.5528 58.0012 37.8748C58.5079 37.1968 59.9495 35.1663 59.9495 34.0637C59.9495 32.9628 60.0334 31.4373 60.0334 31.1001C60.0334 30.7611 60.7114 28.8145 59.8639 26.95C58.622 24.2148 52.7504 22.8837 50.2095 26.1025C49.4085 26.5611 48.8162 27.8101 48.279 29.2588C48.0737 28.1952 47.9417 27.3943 47.9203 27.1195C47.8382 26.0168 53.4693 13.2704 54.0188 11.8325C54.5684 10.3926 53.9367 8.31756 52.7074 7.08824C51.4801 5.86069 49.6582 2.42964 49.5317 1.5839C49.405 0.734638 48.5557 0.905904 48.4308 1.49827C48.3024 2.09086 48.5165 3.78564 49.0232 5.05601C46.6948 4.33519 45.0426 5.94456 45.1265 7.04719C45.198 7.97502 45.3352 8.86357 45.883 8.91875C45.8206 9.22023 45.9669 9.66274 46.4825 10.1801C47.8385 11.5361 50.0402 10.6886 49.5317 11.7038C49.0232 12.7208 42.418 25.7633 42.5857 27.1193C42.6963 27.9952 43.162 32.272 43.6599 35.8726C42.1362 36.208 40.4698 36.513 39.706 38.8075C38.5213 42.3652 36.1485 44.2279 36.1485 44.2279C33.779 44.5669 32.762 43.5517 33.779 44.5669C34.796 45.5839 38.0145 48.1247 40.384 46.5992C41.3796 47.2341 43.0532 48.0552 44.8587 48.378C44.2399 50.3282 43.7813 51.9106 44.2807 53.2061C45.9759 57.6114 46.1435 62.8606 44.9232 66.7216C44.2414 68.8752 39.9558 72.9357 35.0441 80.5579C30.1321 88.1818 29.7432 96.8709 27.0025 107.412C27.0025 107.412 26.7152 109.599 32.2553 109.274C39.8881 108.825 36.491 110.969 46.4825 112.664C55.771 114.234 69.2917 108.782 72.8708 99.0332C74.2072 101.18 75.6532 103.458 75.6532 103.458L76.6345 109.692C76.6345 109.692 76.2171 112.415 75.7817 112.964C75.3462 113.514 76.2849 114.177 77.4802 113.956C78.6793 113.733 80.7098 112.615 80.8702 111.608C81.0309 110.602 80.7987 107.683 80.442 107.008C80.0852 106.334 80.228 106.148 80.8596 106.559C81.5447 107.005 81.5125 107.672 81.898 108.065C82.4975 108.673 83.047 108.142 82.9793 107.822C82.915 107.504 82.3942 105.667 81.6303 103.9C80.9845 102.405 79.7497 101.128 79.5857 100.692L76.7382 96.1245C80.1887 95.1717 84.4889 95.5518 83.7502 94.7061C81.3772 91.9958 76.5027 85.2088 74.8077 81.9902C73.1136 78.7715 66.9798 68.2804 60.2033 63.8769C60.2033 63.8769 62.769 53.1967 63.786 52.3509C64.803 51.5034 72.3698 54.4277 73.2173 54.5955C74.0666 54.7632 78.9794 61.2007 79.1472 62.0464C79.3149 62.8939 78.6369 65.4364 79.1472 67.8059C79.6539 70.1789 80.4996 68.1449 80.8386 66.4499C80.8386 66.4499 84.2287 71.1959 84.9067 71.3636C85.5811 71.5331 85.7524 69.8399 85.2456 68.8229C84.7347 67.8068 87.2755 66.1137 86.4297 64.0813ZM47.1605 8.82473C46.9499 8.61418 46.716 8.50714 46.5074 8.48926C46.5502 7.92559 45.908 6.97634 46.8215 6.4535C48.008 5.77726 49.023 6.4535 49.5317 7.64C50.0402 8.82473 48.0062 9.67223 47.1605 8.82473Z" fill="#E12C6D"/>
</g>
<defs>
<clipPath id="clip0_90_240">
<rect width="113" height="113" fill="white"/>
</clipPath>
</defs>
</svg>
